<svg class="topline__char topline__char--first" width="20" height="35" viewBox="0 0 20 35" fill="none"
                        xmlns="http://www.w3.org/2000/svg">
                        <path
                            d="M0.450012 1.55001C0.450012 0.916673 0.766679 0.600006 1.40001 0.600006H17.6C18.0667 0.600006 18.35 0.650006 18.45 0.750005C18.55 0.850005 18.6 1.11667 18.6 1.55001V5.55C18.6 6.01667 18.55 6.30001 18.45 6.40001C18.35 6.46667 18.0667 6.5 17.6 6.5H7.70001V14.5H16.9C17.5333 14.5 17.85 14.8167 17.85 15.45V19.45C17.85 19.9167 17.8 20.2 17.7 20.3C17.6 20.3667 17.3333 20.4 16.9 20.4H7.70001V29.1H18.1C18.5333 29.1 18.8 29.15 18.9 29.25C19 29.3167 19.05 29.5833 19.05 30.05V34.05C19.05 34.6833 18.7333 35 18.1 35H1.40001C0.766679 35 0.450012 34.6833 0.450012 34.05V1.55001Z"
                             />
                        <path
                            d="M0.450012 1.55001C0.450012 0.916673 0.766679 0.600006 1.40001 0.600006H17.6C18.0667 0.600006 18.35 0.650006 18.45 0.750005C18.55 0.850005 18.6 1.11667 18.6 1.55001V5.55C18.6 6.01667 18.55 6.30001 18.45 6.40001C18.35 6.46667 18.0667 6.5 17.6 6.5H7.70001V14.5H16.9C17.5333 14.5 17.85 14.8167 17.85 15.45V19.45C17.85 19.9167 17.8 20.2 17.7 20.3C17.6 20.3667 17.3333 20.4 16.9 20.4H7.70001V29.1H18.1C18.5333 29.1 18.8 29.15 18.9 29.25C19 29.3167 19.05 29.5833 19.05 30.05V34.05C19.05 34.6833 18.7333 35 18.1 35H1.40001C0.766679 35 0.450012 34.6833 0.450012 34.05V1.55001Z"
                             />
                    </svg>