<svg class="topline__char topline__char--second" width="25" height="35" viewBox="0 0 25 35" fill="none" xmlns="http://www.w3.org/2000/svg">
                        <path
                            d="M0.450012 1.55001C0.450012 0.916673 0.766679 0.600006 1.40001 0.600006H6.75001C7.38335 0.600006 7.70001 0.916673 7.70001 1.55001V16.3L15.75 1.45001C16.0167 1.01667 16.2 0.766673 16.3 0.700006C16.4333 0.63334 16.7167 0.600006 17.15 0.600006H23.05C23.5167 0.600006 23.7667 0.63334 23.8 0.700006C23.8667 0.766673 23.7833 1.01667 23.55 1.45001L14.95 17.45L24 34.15C24.2667 34.5833 24.3667 34.8333 24.3 34.9C24.2333 34.9667 23.9667 35 23.5 35H17.5C17.0667 35 16.7833 34.9667 16.65 34.9C16.55 34.8333 16.3833 34.5833 16.15 34.15L7.70001 18.6V34.05C7.70001 34.6833 7.38335 35 6.75001 35H1.40001C0.766679 35 0.450012 34.6833 0.450012 34.05V1.55001Z"
                             />
                        <path
                            d="M0.450012 1.55001C0.450012 0.916673 0.766679 0.600006 1.40001 0.600006H6.75001C7.38335 0.600006 7.70001 0.916673 7.70001 1.55001V16.3L15.75 1.45001C16.0167 1.01667 16.2 0.766673 16.3 0.700006C16.4333 0.63334 16.7167 0.600006 17.15 0.600006H23.05C23.5167 0.600006 23.7667 0.63334 23.8 0.700006C23.8667 0.766673 23.7833 1.01667 23.55 1.45001L14.95 17.45L24 34.15C24.2667 34.5833 24.3667 34.8333 24.3 34.9C24.2333 34.9667 23.9667 35 23.5 35H17.5C17.0667 35 16.7833 34.9667 16.65 34.9C16.55 34.8333 16.3833 34.5833 16.15 34.15L7.70001 18.6V34.05C7.70001 34.6833 7.38335 35 6.75001 35H1.40001C0.766679 35 0.450012 34.6833 0.450012 34.05V1.55001Z"
                             />
                    </svg>